<?xml version="1.0" standalone="no"?>
<!DOCTYPE svg PUBLIC "-//W3C//DTD SVG 20010904//EN"
 "http://www.w3.org/TR/2001/REC-SVG-20010904/DTD/svg10.dtd">
<svg version="1.0" xmlns="http://www.w3.org/2000/svg"
 width="1024.000000pt" height="1024.000000pt" viewBox="0 0 1024.000000 1024.000000"
 preserveAspectRatio="xMidYMid meet">

<g transform="translate(0.000000,1024.000000) scale(0.100000,-0.100000)"
fill="#000000" stroke="none">
<path d="M7555 9565 c-132 -29 -328 -71 -435 -94 -228 -50 -616 -135 -1215
-267 -236 -52 -594 -131 -795 -175 -201 -43 -383 -83 -405 -89 -22 -6 -479
-107 -1015 -225 -536 -119 -1054 -233 -1150 -255 -96 -21 -332 -73 -524 -115
-193 -42 -362 -84 -378 -93 -15 -9 -35 -32 -44 -51 -15 -32 -16 -44 -5 -111
16 -93 109 -586 161 -855 21 -110 57 -297 80 -415 22 -118 56 -296 75 -395 19
-99 37 -199 41 -221 l6 -42 -48 -6 c-27 -3 -130 -13 -229 -21 -221 -19 -260
-32 -286 -90 -23 -51 -24 -42 61 -390 34 -137 77 -315 96 -395 164 -676 589
-2354 605 -2387 13 -28 32 -47 56 -58 40 -19 70 -19 1178 10 1480 39 1551 40
1579 21 15 -9 31 -27 35 -39 5 -12 5 -110 0 -217 -18 -417 -39 -1002 -39
-1099 0 -118 14 -162 59 -185 44 -23 109 -20 156 7 22 13 137 93 255 178 118
86 373 268 565 406 193 137 474 339 625 448 281 203 517 373 950 685 735 530
693 497 708 555 6 22 45 281 86 575 42 294 111 785 155 1090 116 803 171 1205
171 1242 0 45 -19 78 -60 106 l-35 24 -371 -6 -371 -6 -28 22 -28 22 7 140 c3
78 20 341 36 586 143 2133 143 2149 121 2188 -16 31 -69 52 -123 51 -24 -1
-151 -25 -283 -54z m70 -860 c-19 -269 -47 -650 -60 -845 -23 -322 -34 -480
-80 -1075 -8 -105 -15 -234 -15 -286 0 -108 15 -143 78 -186 50 -33 109 -36
466 -23 181 6 331 9 333 6 5 -4 -4 -75 -67 -516 -16 -113 -77 -542 -135 -955
-58 -412 -117 -831 -131 -930 -29 -210 -28 -205 -57 -226 -12 -9 -160 -113
-329 -232 -169 -119 -511 -362 -760 -540 -249 -177 -538 -384 -643 -458 -430
-307 -842 -604 -878 -632 -21 -16 -41 -27 -44 -23 -6 6 26 772 48 1162 10 161
9 185 -5 213 -9 17 -26 33 -39 36 -12 3 -236 -1 -497 -10 -636 -20 -1336 -42
-1775 -55 -198 -5 -426 -13 -506 -16 l-147 -6 -141 569 c-151 611 -222 906
-361 1493 -48 206 -103 435 -121 507 -18 73 -30 135 -27 138 3 3 97 15 209 25
236 23 272 31 311 70 39 40 37 80 -17 351 -49 244 -132 671 -250 1294 -42 220
-78 407 -80 416 -4 13 35 24 242 68 249 53 1312 287 1843 406 157 35 483 107
725 160 242 53 658 145 925 205 851 190 1619 361 1820 405 l195 42 3 -31 c2
-17 -13 -251 -33 -521z"/>
<path d="M6857 7515 c-96 -20 -107 -24 -116 -48 -5 -12 -14 -305 -21 -650 -12
-613 -12 -629 6 -648 19 -18 24 -18 303 20 156 22 288 44 295 51 6 6 12 59 14
130 3 107 2 121 -14 127 -10 3 -85 -2 -167 -13 -81 -11 -150 -17 -151 -14 -2
3 1 232 6 509 7 351 6 512 -1 528 -12 27 -47 29 -154 8z"/>
<path d="M6136 7395 c-59 -9 -94 -19 -101 -29 -14 -18 -24 -380 -27 -924 -1
-312 1 -355 15 -369 14 -15 30 -14 189 6 330 42 382 51 396 68 14 20 17 220 3
242 -10 16 -84 11 -226 -14 -44 -7 -82 -11 -86 -7 -3 4 -1 230 3 502 4 272 6
505 3 518 -6 26 -30 27 -169 7z"/>
<path d="M5480 7330 c-195 -41 -313 -208 -356 -504 -21 -140 -15 -465 10 -565
36 -142 117 -243 222 -276 73 -23 196 -17 276 14 211 81 311 353 295 801 -12
355 -117 522 -335 535 -37 2 -87 0 -112 -5z m102 -289 c33 -26 46 -75 53 -201
9 -143 -9 -442 -30 -502 -23 -66 -56 -98 -100 -98 -83 0 -105 72 -105 334 1
291 18 386 80 448 42 43 66 47 102 19z"/>
<path d="M4491 7179 c-117 -15 -148 -22 -165 -39 -20 -20 -21 -34 -28 -373
-16 -860 -16 -896 -3 -914 11 -15 21 -15 116 -4 57 7 111 17 120 21 24 13 29
54 29 234 0 88 4 166 8 172 4 6 17 14 30 18 20 7 25 1 46 -46 13 -29 45 -112
71 -185 26 -73 53 -140 60 -149 12 -16 21 -17 126 -5 63 7 122 17 132 22 26
15 21 44 -29 164 -25 61 -61 148 -80 195 -20 47 -40 90 -45 97 -7 8 5 30 41
75 91 112 120 201 120 361 0 159 -37 256 -122 317 -81 59 -193 69 -427 39z
m234 -273 c30 -30 39 -77 33 -171 -7 -111 -49 -164 -145 -186 l-33 -7 0 187
c0 103 3 191 7 194 3 4 31 7 60 7 43 0 59 -5 78 -24z"/>
<path d="M4060 7129 c-41 -5 -85 -11 -97 -14 -27 -6 -46 -43 -188 -357 -54
-120 -100 -217 -101 -215 -1 1 3 116 9 255 9 219 8 255 -4 268 -13 13 -28 13
-124 0 -156 -20 -150 -10 -158 -267 -4 -112 -10 -395 -13 -629 -6 -391 -6
-426 10 -439 14 -12 33 -12 132 1 64 9 120 20 124 24 5 5 12 104 17 220 7 180
11 214 27 239 17 26 20 27 31 11 7 -9 50 -99 96 -199 96 -211 104 -225 134
-233 22 -6 229 21 246 32 17 10 9 44 -30 126 -21 46 -63 135 -93 198 -30 63
-76 160 -101 215 l-47 100 140 313 c77 172 140 324 140 338 0 27 -13 28 -150
13z"/>
<path d="M2857 6989 c-133 -46 -214 -129 -252 -263 -13 -44 -16 -86 -13 -170
3 -104 6 -115 38 -175 43 -80 80 -111 222 -187 131 -70 163 -104 155 -167 -7
-48 -28 -72 -83 -93 -59 -22 -182 -15 -250 15 -69 31 -75 22 -81 -131 -5 -108
-4 -126 11 -141 54 -54 287 -70 409 -28 193 66 296 228 285 447 -8 156 -64
239 -215 323 -143 80 -172 103 -189 148 -15 39 -15 44 2 80 28 56 72 76 159
69 39 -2 91 -13 117 -22 35 -13 51 -15 59 -7 6 6 13 63 16 126 7 141 0 158
-79 182 -77 22 -237 20 -311 -6z"/>
<path d="M7567 6039 c-184 -43 -300 -227 -284 -449 8 -96 21 -137 66 -197 38
-49 94 -92 202 -153 34 -19 70 -48 81 -65 36 -59 14 -126 -52 -160 -42 -22
-139 -19 -215 6 -36 12 -68 19 -71 16 -19 -18 -33 -223 -18 -261 20 -53 285
-71 397 -27 169 66 257 224 244 437 -3 50 -12 98 -25 127 -22 51 -97 129 -146
154 -82 41 -165 105 -181 138 -31 66 3 136 77 156 44 11 90 5 166 -23 33 -13
57 -17 63 -11 5 5 14 62 21 127 13 146 9 159 -63 180 -57 17 -199 20 -262 5z"/>
<path d="M7108 5965 c-125 -12 -135 -19 -172 -108 -44 -110 -186 -421 -196
-431 -7 -7 -9 -1 -5 19 8 50 25 424 19 439 -9 23 -25 25 -113 15 -102 -11
-149 -30 -155 -61 -3 -13 -7 -124 -10 -248 -3 -124 -11 -381 -17 -572 -6 -191
-9 -359 -5 -373 6 -23 11 -25 59 -25 64 1 184 23 199 38 6 6 13 88 17 195 6
149 11 190 25 211 9 14 20 26 24 26 4 0 43 -82 86 -183 44 -100 87 -190 95
-201 14 -16 26 -18 106 -12 116 9 165 22 165 44 0 9 -59 146 -131 304 l-132
287 137 300 c75 164 136 308 136 319 0 28 -11 29 -132 17z"/>
<path d="M6254 5856 c-55 -7 -105 -15 -111 -19 -5 -3 -61 -119 -123 -257 -63
-137 -115 -248 -117 -246 -2 2 1 84 6 181 15 250 15 284 -6 292 -27 10 -211
-14 -237 -31 -22 -14 -24 -23 -30 -138 -3 -68 -11 -345 -17 -617 -10 -437 -10
-495 4 -508 13 -13 28 -14 117 -3 56 6 108 14 116 17 20 7 22 25 29 218 6 167
21 241 46 233 9 -3 53 -97 147 -316 38 -90 52 -97 155 -83 108 16 157 29 163
45 4 11 -127 301 -226 498 l-44 88 16 42 c9 24 66 152 126 285 137 302 141
311 122 323 -8 6 -19 9 -25 9 -5 -1 -55 -7 -111 -13z"/>
<path d="M5336 5736 c-99 -15 -106 -24 -106 -130 0 -90 -16 -673 -26 -951 -7
-225 -15 -214 132 -197 57 6 113 16 123 22 24 12 27 61 40 739 7 361 7 509 -1
518 -12 15 -55 15 -162 -1z"/>
<path d="M4841 5676 c-75 -9 -97 -16 -111 -33 -17 -22 -53 -162 -136 -528 -25
-110 -49 -213 -53 -230 l-9 -30 -1 36 c-1 34 -50 279 -110 554 -17 76 -37 146
-45 153 -22 22 -260 -7 -287 -35 -16 -16 -23 -52 -39 -229 -12 -115 -31 -321
-45 -459 -44 -451 -50 -554 -37 -567 9 -9 32 -9 100 -1 126 16 139 23 146 75
9 70 45 465 52 571 4 53 9 95 11 93 4 -4 108 -481 133 -613 19 -96 20 -97 119
-80 45 8 89 21 96 28 14 14 175 653 175 695 0 12 4 25 9 28 4 3 11 -69 15
-160 14 -316 32 -514 49 -531 13 -14 26 -14 99 -3 142 22 143 22 146 60 2 19
-6 160 -18 315 -11 154 -29 414 -39 578 -13 192 -24 303 -31 312 -14 17 -55
18 -189 1z"/>
<path d="M3429 5531 c-208 -66 -320 -269 -338 -612 -21 -385 43 -596 204 -675
47 -23 66 -26 147 -25 139 0 224 35 306 126 124 135 168 320 159 668 -5 207
-15 268 -64 365 -36 71 -110 137 -176 157 -67 20 -169 18 -238 -4z m131 -271
c10 -5 27 -31 37 -57 16 -42 18 -79 18 -298 0 -280 -11 -342 -65 -396 -34 -34
-88 -39 -112 -11 -47 53 -53 79 -56 278 -6 285 19 428 81 476 25 20 69 23 97
8z"/>
<path d="M2722 5449 c-248 -24 -402 -249 -421 -617 -20 -399 64 -627 255 -687
111 -35 332 -2 398 60 25 23 26 29 26 135 0 81 -3 112 -13 116 -7 2 -39 -5
-71 -16 -228 -78 -306 2 -305 315 0 317 75 438 262 421 39 -3 86 -7 102 -9
l30 -2 7 115 c7 108 6 116 -13 132 -40 34 -139 48 -257 37z"/>
</g>
</svg>
